<svg width="241" height="444" viewBox="0 0 241 444" fill="none" xmlns="http://www.w3.org/2000/svg">
<path d="M0 90.2562C0 89.0102 1.01016 88 2.25625 88V88C2.67161 88 3.00833 88.3367 3.00833 88.7521V105.248C3.00833 105.663 2.67161 106 2.25625 106V106C1.01016 106 0 104.99 0 103.744V90.2562Z" fill="#CFD3D7"/>
<path d="M0 123.778C0 122.796 0.808126 122 1.805 122H2.40667C2.73896 122 3.00833 122.265 3.00833 122.593V153.407C3.00833 153.735 2.73896 154 2.40667 154H1.805C0.808126 154 0 153.204 0 152.222V123.778Z" fill="#CFD3D7"/>
<path d="M0 163.778C0 162.796 0.808126 162 1.805 162H2.40667C2.73896 162 3.00833 162.265 3.00833 162.593V193.407C3.00833 193.735 2.73896 194 2.40667 194H1.805C0.808126 194 0 193.204 0 192.222V163.778Z" fill="#CFD3D7"/>
<path d="M237.66 131.607C237.66 131.272 237.997 131 238.412 131V131C239.658 131 240.669 131.815 240.669 132.82V183.18C240.669 184.185 239.658 185 238.412 185V185C237.997 185 237.66 184.728 237.66 184.393V131.607Z" fill="#CFD3D7"/>
<path fill-rule="evenodd" clip-rule="evenodd" d="M204.258 0H36.405C17.4058 0 2.00391 15.3444 2.00391 34.2727V409.727C2.00391 428.656 17.4058 444 36.405 444H204.258C223.258 444 238.659 428.656 238.659 409.727V34.2727C238.659 15.3444 223.258 0 204.258 0Z" fill="#FAFAFA"/>
<path fill-rule="evenodd" clip-rule="evenodd" d="M10.0646 33.655C10.0402 34.1265 10.0278 34.6012 10.0278 35.0788V408.921C10.0278 423.876 22.1437 436 37.0895 436H203.577C218.523 436 230.639 423.876 230.639 408.921V35.0788C230.639 35.0204 230.639 34.962 230.638 34.9037C230.544 20.0291 218.465 8 203.577 8C148.333 8 93.1019 8 37.0895 8C30.3461 8 24.1789 10.468 19.4406 14.5506C17.6152 16.1233 16.002 17.9357 14.6495 19.9388C11.9801 23.8926 10.3268 28.5897 10.0646 33.655Z" fill="#FAFAFA"/>
<rect x="104.289" y="20" width="24.0667" height="4" rx="2" fill="black"/>
<ellipse cx="134.372" cy="22" rx="2.00555" ry="2" fill="black"/>
</svg>
